{"title":"I Am Potential 2016 Movies HDRip XviD AAC New +Sample ~ ☻rDX☻","uid":15682211,"size":740263469,"categoryP":"video","categoryS":"movies","magnet":"?xt=urn:btih:7baba498f0a083b970cc2529b4d4400a733190f7&amp;dn=I+Am+Potential+2016+Movies+HDRip+XviD+AAC+New+%2BSample+%7E+%E2%98%BBrDX%E2%98%BB&amp;tr=udp%3A%2F%2Ftracker.leechers-paradise.org%3A6969&amp;tr=udp%3A%2F%2Fzer0day.ch%3A1337&amp;tr=udp%3A%2F%2Fopen.demonii.com%3A1337&amp;tr=udp%3A%2F%2Ftracker.coppersurfer.tk%3A6969&amp;tr=udp%3A%2F%2Fexodus.desync.com%3A6969","seeders":1,"leechers":0,"uploader":"basicssom","files":2,"time":1472332895,"description":"----------------------------------------------------------------\r\nI Am Potential 2016 English Movies HDRip XviD AAC New Source with Sample ☻rDX☻\r\n\r\nSCREEN SHOTS &amp; POSTER:\r\n  \nhttp://postimage.co.nr/2016/8/earning/index.htm  \nhttp://postimage.co.nr/2016/8/earning/1.html  \nhttp://postimage.co.nr/2016/8/earning/2.html  \nhttp://postimage.co.nr/2016/8/earning/3.html  \nhttp://postimage.co.nr/2016/8/earning/4.html  \nhttp://postimage.co.nr/2016/8/earning/5.html  \nhttp://postimage.co.nr/2016/8/earning/6.html  \nhttp://postimage.co.nr/2016/8/earning/7.html  \nhttp://postimage.co.nr/2016/8/earning/8.html  \nhttp://postimage.co.nr/2016/8/earning/9.html  \nhttp://postimage.co.nr/2016/8/earning/10.html\r\n\r\nFormat                                   : Matroska\r\nFormat version                           : Version 4 / Version 2\r\nFile size                                : 698 MiB\r\nDuration                                 : 1 h 34 min\r\nOverall bit rate mode                    : Constant\r\nOverall bit rate                         : 1 032 kb/s\r\nMovie name                               : I Am Potential 2016 English Movies HDRip XviD AAC New Source ☻rDX☻\r\n\r\nVideo\r\nID                                       : 2\r\nFormat                                   : AVC\r\nFormat/Info                              : Advanced Video Codec\r\nFormat profile                           :   \r\nFormat settings, CABAC                   : Yes\r\nFormat settings, ReFrames                : 2 frames\r\nFormat settings, GOP                     : M=1, N=12\r\nCodec ID                                 : V_MPEG4/ISO/AVC\r\nDuration                                 : 1 h 34 min\r\nBit rate mode                            : Constant\r\nBit rate                                 : 649 kb/s\r\nWidth                                    : 720 pixels\r\nHeight                                   : 320 pixels\r\nDisplay aspect ratio                     : 2.25:1\r\nFrame rate mode                          : Constant\r\nFrame rate                               : 23.976 (23976/1000) FPS\r\nColor space                              : YUV\r\nChroma subsampling                       : 4:2:0\r\nBit depth                                : 8 bits\r\nScan type                                : Progressive\r\nBits/(Pixel*Frame)                       : 0.117\r\nStream size                              : 424 MiB (61%)\r\nTitle                                    : ☻rDX☻\r\nDefault                                  : Yes\r\nForced                                   : No\r\n\r\nAudio\r\nID                                       : 1\r\nFormat                                   : AC-3\r\nFormat/Info                              : Audio Coding 3\r\nMode extension                           : CM (complete main)\r\nFormat settings, Endianness              : Big\r\nCodec ID                                 : A_AC3\r\nDuration                                 : 1 h 34 min\r\nBit rate mode                            : Constant\r\nBit rate                                 : 384 kb/s\r\nChannel(s)                               : 6 channels\r\nChannel positions                        : Front: L C R, Side: L R, LFE\r\nSampling rate                            : 48.0 kHz\r\nFrame rate                               : 31.250 FPS (1536 spf)\r\nCompression mode                         : Lossy\r\nStream size                              : 260 MiB (37%)\r\nTitle                                    : ☻rDX☻\r\nDefault                                  : Yes\r\nForced                                   : No\r\n\r\nIMDB \nhttp://www.imdb.com/title/tt2918608/","torrent":{"xt":"urn:btih:7baba498f0a083b970cc2529b4d4400a733190f7","amp;dn":"I+Am+Potential+2016+Movies+HDRip+XviD+AAC+New+%2BSample+%7E+%E2%98%BBrDX%E2%98%BB","amp;tr":["udp%3A%2F%2Ftracker.leechers-paradise.org%3A6969","udp%3A%2F%2Fzer0day.ch%3A1337","udp%3A%2F%2Fopen.demonii.com%3A1337","udp%3A%2F%2Ftracker.coppersurfer.tk%3A6969","udp%3A%2F%2Fexodus.desync.com%3A6969"],"infoHash":"7baba498f0a083b970cc2529b4d4400a733190f7","infoHashBuffer":{"type":"Buffer","data":[123,171,164,152,240,160,131,185,112,204,37,41,180,212,64,10,115,49,144,247]},"announce":[],"urlList":[]}}